General

Format                         : MPEG-4
Format profile                 : Base Media
Codec ID                       : isom
File size                      : 67.8 MiB
Duration                       : 4mn 48s
Overall bit rate mode          : Variable
Overall bit rate               : 1 972 Kbps
Encoded date                   : UTC 2012-07-07 19:47:21
Tagged date                    : UTC 2012-07-07 19:47:21

Video
ID                             : 1
Format                         : AVC
Format/Info                    : Advanced Video Codec
Format profile                 : High@L3.0
Format settings, CABAC         : Yes
Format settings, ReFrames      : 2 frames
Codec ID                       : avc1
Codec ID/Info                  : Advanced Video Coding
Duration                       : 4mn 48s
Bit rate                       : 1 740 Kbps
Maximum bit rate               : 7 242 Kbps
Width                          : 720 pixels
Height                         : 480 pixels
Display aspect ratio           : 16:9
Original display aspect ratio  : 16:9
Frame rate mode                : Constant
Frame rate                     : 23.976 fps
Standard                       : NTSC
Color space                    : YUV
Chroma subsampling             : 4:2:0
Bit depth                      : 8 bits
Scan type                      : Progressive
Bits/(Pixel*Frame)             : 0.210
Stream size                    : 61.0 MiB (90%)


Audio
ID                             : 2
Format                         : AAC
Format/Info                    : Advanced Audio Codec
Format profile                 : LC
Codec ID                       : 40
Duration                       : 4mn 48s
Bit rate mode                  : Variable
Bit rate                       : 192 Kbps
Maximum bit rate               : 220 Kbps
Channel(s)                     : 2 channels
Channel positions              : Front: L R
Sampling rate                  : 44.1 KHz
Compression mode               : Lossy
Delay relative to video        : -833ms
Stream size                    : 6.58 MiB (10%)